<svg width="36" height="36" viewBox="0 0 36 36" fill="none" xmlns="http://www.w3.org/2000/svg">
<rect width="36" height="36" rx="8" fill="#DB3D3D" fill-opacity="0.16"/>
<path d="M18 27.175L16.55 25.875C14.8667 24.3583 13.475 23.05 12.375 21.95C11.275 20.85 10.4 19.8625 9.75 18.9875C9.1 18.1125 8.64583 17.3083 8.3875 16.575C8.12917 15.8416 8 15.0916 8 14.325C8 12.7583 8.525 11.45 9.575 10.4C10.625 9.34995 11.9333 8.82495 13.5 8.82495C14.3667 8.82495 15.1917 9.00828 15.975 9.37495C16.7583 9.74162 17.4333 10.2583 18 10.925C18.5667 10.2583 19.2417 9.74162 20.025 9.37495C20.8083 9.00828 21.6333 8.82495 22.5 8.82495C24.0667 8.82495 25.375 9.34995 26.425 10.4C27.475 11.45 28 12.7583 28 14.325C28 15.0916 27.8708 15.8416 27.6125 16.575C27.3542 17.3083 26.9 18.1125 26.25 18.9875C25.6 19.8625 24.725 20.85 23.625 21.95C22.525 23.05 21.1333 24.3583 19.45 25.875L18 27.175Z" fill="#FC4545"/>
</svg>
